<svg xmlns="http://www.w3.org/2000/svg" fill="none" width="343" height="104" viewBox="0 0 343 104"><path d="M125.351 65.91c.468 3.285 1.382 5.75 2.741 7.392 2.494 2.955 6.763 4.431 12.808 4.43 3.625 0 6.567-.392 8.826-1.173 4.286-1.5 6.428-4.286 6.428-8.358 0-2.38-1.054-4.22-3.163-5.52-2.109-1.3-5.44-2.424-9.992-3.372l-7.789-1.715c-7.655-1.694-12.916-3.535-15.782-5.52-4.848-3.323-7.272-8.52-7.272-15.592 0-6.45 2.372-11.81 7.114-16.082 4.743-4.271 11.712-6.405 20.906-6.4 7.676 0 14.224 2.011 19.644 6.034 5.42 4.023 8.261 9.863 8.524 17.522h-14.436c-.267-4.33-2.202-7.409-5.806-9.235-2.399-1.206-5.385-1.81-8.956-1.81-3.971 0-7.142.784-9.511 2.349-2.369 1.565-3.553 3.748-3.553 6.548 0 2.582 1.172 4.504 3.515 5.767 1.499.845 4.686 1.838 9.56 2.981l12.628 2.979c5.533 1.305 9.681 3.048 12.446 5.231 4.288 3.392 6.432 8.294 6.432 14.709 0 6.583-2.541 12.05-7.623 16.402-5.083 4.35-12.262 6.525-21.539 6.523-9.473 0-16.923-2.143-22.35-6.428-5.427-4.286-8.144-10.173-8.151-17.663h14.351zm82.608-3.672c-.854.536-1.758.986-2.7 1.344a22.675 22.675 0 0 1-3.736.954l-3.163.585c-2.967.524-5.1 1.154-6.394 1.908-2.193 1.272-3.288 3.242-3.286 5.91 0 2.38.669 4.1 2.007 5.158a7.625 7.625 0 0 0 4.882 1.588 14.51 14.51 0 0 0 8.404-2.64c2.559-1.76 3.888-4.969 3.989-9.625l-.003-5.183zm-8.51-6.5c2.59-.325 4.442-.733 5.557-1.22 1.999-.848 3-2.168 3.002-3.961 0-2.183-.768-3.69-2.302-4.52-1.535-.831-3.782-1.248-6.742-1.25-3.332 0-5.691.815-7.078 2.446-.992 1.204-1.651 2.832-1.979 4.883H176.47c.295-4.656 1.603-8.484 3.922-11.484 3.693-4.694 10.035-7.04 19.026-7.04 5.858 0 11.055 1.157 15.591 3.47 4.537 2.315 6.804 6.683 6.801 13.104V74.6c0 1.697.029 3.75.095 6.161.099 1.824.375 3.06.83 3.71a4.961 4.961 0 0 0 2.052 1.617v2.052h-15.12a15.59 15.59 0 0 1-.879-3.03 36.989 36.989 0 0 1-.39-3.226 28.58 28.58 0 0 1-6.678 5.327 20.188 20.188 0 0 1-10.214 2.59c-4.846 0-8.848-1.377-12.006-4.132-3.159-2.755-4.738-6.656-4.738-11.702 0-6.548 2.541-11.29 7.623-14.223 2.786-1.596 6.887-2.736 12.302-3.422l4.762-.584zm54.536-40.298c.703.05 1.69.123 2.928.222v11.34c-.781-.1-2.088-.173-3.93-.223-1.842-.049-3.107.352-3.807 1.222a4.45 4.45 0 0 0-1.054 2.862v4.492h9.138v9.826h-9.138v42.95h-13.813V45.18h-7.81v-9.826h7.613v-3.418c0-5.699.961-9.625 2.882-11.78 2.018-3.192 6.883-4.787 14.597-4.787.876 0 1.673.023 2.39.07m36.424 18.183c.179.018.576.042 1.195.074v14.258a37.791 37.791 0 0 0-4-.243c-5.598 0-9.357 1.825-11.279 5.474-1.073 2.054-1.61 5.215-1.61 9.485v25.46h-14.01V34.869h13.279v9.287c2.149-3.55 4.024-5.979 5.624-7.283 2.603-2.183 5.988-3.274 10.154-3.274.26 0 .478 0 .657.024m35.746 28.614c-.854.537-1.758.987-2.7 1.345a22.675 22.675 0 0 1-3.736.954l-3.163.585c-2.967.524-5.1 1.154-6.394 1.908-2.2 1.272-3.3 3.246-3.3 5.921 0 2.38.669 4.1 2.007 5.158a7.614 7.614 0 0 0 4.882 1.588c3.006.012 5.941-.91 8.4-2.64 2.561-1.761 3.892-4.97 3.993-9.626l.011-5.193zm-8.51-6.498c2.59-.326 4.442-.734 5.557-1.222 1.994-.854 2.991-2.174 2.991-3.96 0-2.183-.767-3.69-2.302-4.52-1.535-.831-3.783-1.248-6.745-1.25-3.329 0-5.688.815-7.075 2.446-.991 1.204-1.651 2.832-1.979 4.883h-13.426c.295-4.656 1.603-8.484 3.922-11.484 3.693-4.694 10.035-7.04 19.026-7.04 5.858 0 11.055 1.157 15.591 3.47 4.537 2.315 6.807 6.68 6.812 13.097v24.435c0 1.697.033 3.75.098 6.161.099 1.824.375 3.06.83 3.71A4.972 4.972 0 0 0 343 86.083v2.052h-15.114a15.583 15.583 0 0 1-.878-3.031 35.861 35.861 0 0 1-.39-3.225 28.652 28.652 0 0 1-6.679 5.327 20.185 20.185 0 0 1-10.213 2.59c-4.846 0-8.848-1.377-12.007-4.132-3.159-2.756-4.738-6.656-4.738-11.702 0-6.548 2.541-11.29 7.624-14.223 2.786-1.596 6.886-2.737 12.301-3.422l4.745-.577zM65.6 76.183c-3.74 0-6.196-2.14-6.196-5.35 0-2.675 1.817-4.815 3.954-4.815.854 0 1.602.32 1.602 1.175 0 .535-.214.965.32.965.32 0 .643-.32.643-1.18 0-1.055-.963-1.925-2.351-1.925h-.323c.144-.3.218-.63.214-.964a1.462 1.462 0 0 0-1.494-1.496c-.748 0-1.497.43-1.497.964a.283.283 0 0 0 .191.306.28.28 0 0 0 .13.011c.319 0 .428-.317.962-.317a.67.67 0 0 1 .745.746c0 .75-.64 1.056-1.174 1.39a5.848 5.848 0 0 0-2.885 5.14c0 2.995 1.712 4.927 4.168 5.776l-1.602 2.464c-2.137 0-3.209 1.608-5.131 5.03a1.873 1.873 0 0 0-1.922-1.5c-1.178 0-1.926.855-1.926 2.035a.486.486 0 0 0 .428.531.502.502 0 0 0 .535-.531.983.983 0 0 1 .963-1.056c.748 0 1.054.535 1.054 1.175a3.22 3.22 0 0 1-.643 2.035c-2.242 3.636-5.342 5.455-8.013 5.455-2.354 0-3.742-1.39-3.742-2.78 0-1.285.748-2.355 2.03-2.355.855 0 1.389.535 1.389 1.281 0 .644-.534.644-.534.965 0 .214.214.32.429.32.643 0 1.054-.746 1.054-1.496 0-1.18-.963-2.035-2.351-2.035a2.917 2.917 0 0 0-2.67 1.715 2.932 2.932 0 0 0-2.672-1.715c-1.405 0-2.354.856-2.354 2.035 0 .75.428 1.496 1.054 1.496.21 0 .425-.106.425-.32 0-.32-.534-.32-.534-.965 0-.746.534-1.281 1.406-1.281 1.279 0 2.028 1.056 2.028 2.355 0 1.39-1.389 2.78-3.74 2.78-2.67 0-5.77-1.82-8.016-5.455a3.239 3.239 0 0 1-.607-2.052c0-.641.32-1.176 1.054-1.176a.983.983 0 0 1 .963 1.056.502.502 0 0 0 .53.531.485.485 0 0 0 .429-.531c0-1.18-.748-2.035-1.922-2.035a1.871 1.871 0 0 0-1.926 1.5c-1.908-3.407-2.977-5.012-5.103-5.012l-1.602-2.464c2.46-.855 4.168-2.78 4.168-5.776a5.853 5.853 0 0 0-2.886-5.14c-.534-.32-1.173-.64-1.173-1.39a.673.673 0 0 1 .748-.746c.535 0 .64.317.96.317a.284.284 0 0 0 .323-.317c0-.535-.748-.964-1.497-.964a1.456 1.456 0 0 0-1.393.917c-.073.184-.109.38-.104.579-.004.334.07.664.214.964h-.32c-1.405 0-2.35.856-2.35 1.926 0 .858.32 1.179.64 1.179.533 0 .319-.43.319-.965 0-.855.748-1.175 1.606-1.175 2.137 0 3.953 2.14 3.953 4.815 0 3.21-2.46 5.35-6.199 5.35-4.382 0-7.696-3.21-7.696-7.705 0-4.39 2.566-7.392 5.45-10.056l2.46-2.355c3.1-2.89 4.38-5.885 4.38-9.627 0-4.069-2.46-8.563-7.584-10.809 1.054-.32 1.708-1.408 1.708-2.675 0-.855-.32-1.387-.32-2.03 0-1.286.748-2.035 1.817-2.035a1.552 1.552 0 0 1 1.602 1.5 1.127 1.127 0 0 1-1.177 1.178c-.32 0-.534 0-.534.32s.323.426.748.426a1.878 1.878 0 0 0 1.922-1.605c.23.134.488.208.752.215a1.231 1.231 0 0 0 1.28-1.285c0-.214-.106-.535-.425-.535-.215 0-.32.215-.32.426a.507.507 0 0 1-.535.539 1.141 1.141 0 0 1-.962-.75 2.75 2.75 0 0 0-2.351-1.408 2.661 2.661 0 0 0-2.675 2.25 11.997 11.997 0 0 0-2.46-1.922c.854-.54 1.603-.965 2.46-1.61a27.076 27.076 0 0 0 3.743-3.424l5.876-6.42c5.13-5.67 8.434-7.06 11.65-7.06 2.779 0 4.167 1.39 4.167 2.995 0 1.179-.502 2.052-1.304 2.481a3.57 3.57 0 0 1-.938-1.84c-.109-.532-.214-.532-.323-.532-.215 0-.215.21-.215.426a4.17 4.17 0 0 0 .577 2.228c-.116 0-.236.02-.352.02-1.054 0-1.708-.538-1.708-1.178a.683.683 0 0 1 .215-.532c.21-.215.105-.324 0-.324-.429 0-.858.535-.858 1.176 0 .75.643 1.82 2.46 1.82.342 0 .682-.051 1.009-.152a3.51 3.51 0 0 0 4.178 0c.328.101.67.152 1.012.152 1.814 0 2.46-1.056 2.46-1.82 0-.64-.428-1.176-.854-1.176-.105 0-.214.11 0 .324a.703.703 0 0 1 .211.532c0 .64-.64 1.179-1.708 1.179-.123 0-.246 0-.351-.021a4.17 4.17 0 0 0 .576-2.228c0-.215 0-.426-.214-.426-.106 0-.215 0-.32.531a3.624 3.624 0 0 1-.938 1.841c-.801-.43-1.308-1.302-1.308-2.481 0-1.605 1.389-2.996 4.168-2.996 3.205 0 6.52 1.39 11.65 7.061l5.876 6.42a22.152 22.152 0 0 0 3.742 3.425c.854.644 1.603 1.056 2.46 1.608-.9.53-1.727 1.177-2.46 1.922a2.669 2.669 0 0 0-2.674-2.249 2.746 2.746 0 0 0-2.351 1.408 1.143 1.143 0 0 1-.96.75.505.505 0 0 1-.534-.539c0-.21-.109-.426-.32-.426-.323 0-.428.32-.428.535a1.236 1.236 0 0 0 1.282 1.285c.264-.007.522-.081.75-.215a1.884 1.884 0 0 0 1.921 1.605c.43 0 .749-.105.749-.425s-.215-.32-.534-.32a1.052 1.052 0 0 1-1.174-1.18 1.557 1.557 0 0 1 1.599-1.5c1.072 0 1.82.75 1.82 2.035 0 .644-.323 1.176-.323 2.031 0 1.285.643 2.355 1.711 2.675-5.13 2.246-7.587 6.74-7.587 10.81 0 3.741 1.283 6.736 4.379 9.626l2.46 2.355c2.885 2.675 5.45 5.667 5.45 10.056 0 4.495-3.314 7.705-7.696 7.705H65.6zM42.023 96.08a16.572 16.572 0 0 0-2.246-3.315 4.22 4.22 0 0 0 2.246-2.035 4.22 4.22 0 0 0 2.242 2.035 16.606 16.606 0 0 0-2.242 3.315zm1.079-80.251a2.629 2.629 0 0 1-2.161 0 3.381 3.381 0 0 0 1.082-1.447 3.375 3.375 0 0 0 1.079 1.447zM75.046 63.88a1.541 1.541 0 0 0-1.406.753c-.854-1.925-1.708-3.745-5.45-7.17.485.148.99.22 1.497.215 1.177 0 2.46-.324 3.205-1.056a1.616 1.616 0 0 0 1.606 1.18c1.173 0 1.602-.75 1.602-1.606 0-.323-.109-.644-.429-.644-.64 0-.105 1.285-1.173 1.285a.762.762 0 0 1-.749-.859c0-.531.32-1.175.32-1.925a3.172 3.172 0 0 0-2.351-3.21 1.451 1.451 0 0 1-1.174-1.39c0-.856.64-.962 1.054-.962.415 0 .749.106.749-.214s-.32-.535-.96-.535c-.748 0-1.816.535-1.816 1.71a1.689 1.689 0 0 0 .534 1.285 2.19 2.19 0 0 0-1.817 2.144c0 .746.21 1.492.749 1.492.64 0 .105-.535.105-1.39 0-.961.854-1.387 1.711-1.387 1.174 0 2.242 1.056 2.242 2.464 0 1.605-1.282 2.675-3.314 2.675a5.333 5.333 0 0 1-4.287-1.844c-2.245-2.464-3.514-4.6-3.514-8.448 0-4.928 3.514-9.204 8.655-10.595a2.656 2.656 0 0 0 1.923-2.57c0-1.055-.64-1.921-1.708-1.921-.429 0-.749.102-.749.426s.32.32.534.32a1.086 1.086 0 0 1 .96 1.176 1.72 1.72 0 0 1-1.13 1.614 1.71 1.71 0 0 1-.687.1c-1.174 0-1.922-.855-1.922-2.034 0-2.246 2.674-3.745 4.702-4.703-1.817-.859-2.46-1.18-3.848-2.25a1.377 1.377 0 0 1-.425-1.055c0-.535.32-.965.748-.965a.507.507 0 0 1 .534.536c0 .32-.214.32-.214.535a.282.282 0 0 0 .32.32c.214 0 .748-.211.748-1.056a1.269 1.269 0 0 0-1.388-1.285 1.714 1.714 0 0 0-1.711 1.82 22.692 22.692 0 0 1-2.351-2.246l-3.42-3.745c-.963-1.056-.428-3.1.96-3.1a.982.982 0 0 1 1.054.964c0 .96-.963.531-.963 1.056a.389.389 0 0 0 .432.394 1.48 1.48 0 0 0 1.42-.997c.068-.195.094-.402.077-.608a1.93 1.93 0 0 0-2.03-1.816c-1.407 0-2.348 1.056-2.348 2.57l-1.072-1.18c-4.702-5.136-8.547-7.392-12.3-7.392a6.181 6.181 0 0 0-3.42.965 16.702 16.702 0 0 1-1.387-1.926 16.76 16.76 0 0 1-1.406 1.926 6.181 6.181 0 0 0-3.42-.965c-3.739 0-7.587 2.25-12.3 7.392l-1.053 1.18c0-1.5-.963-2.57-2.351-2.57a1.924 1.924 0 0 0-2.031 1.816 1.49 1.49 0 0 0 1.497 1.605.387.387 0 0 0 .425-.426c0-.535-.96-.106-.96-1.056a.985.985 0 0 1 .66-.914.98.98 0 0 1 .395-.05c1.388 0 1.922 2.03.962 3.1L18.97 22.58a22.703 22.703 0 0 1-2.351 2.245 1.721 1.721 0 0 0-1.03-1.678 1.713 1.713 0 0 0-.678-.141 1.264 1.264 0 0 0-1.406 1.284c0 .86.534 1.056.749 1.056a.281.281 0 0 0 .32-.32c0-.215-.211-.215-.211-.535a.505.505 0 0 1 .534-.535c.428 0 .748.43.748.964a1.38 1.38 0 0 1-.428 1.056c-1.283 1.285-2.032 1.408-3.849 2.25 2.032.957 4.702 2.463 4.702 4.702 0 1.179-.745 2.034-1.922 2.034a1.713 1.713 0 0 1-1.817-1.714 1.093 1.093 0 0 1 .963-1.175c.211 0 .534 0 .534-.32 0-.321-.323-.427-.748-.427-1.054 0-1.712.856-1.712 1.922a2.667 2.667 0 0 0 1.926 2.57c5.128 1.5 8.656 5.67 8.656 10.594 0 3.851-1.388 5.882-3.514 8.448a5.338 5.338 0 0 1-4.25 1.848c-2.03 0-3.313-1.056-3.313-2.675 0-1.39 1.054-2.464 2.245-2.464.854 0 1.708.426 1.708 1.387 0 .855-.534 1.39.11 1.39.534 0 .748-.746.748-1.492a2.198 2.198 0 0 0-1.817-2.144 1.7 1.7 0 0 0 .534-1.285c0-1.175-1.054-1.71-1.817-1.71-.643 0-.963.214-.963.535 0 .32.32.214.749.214s1.054.106 1.054.961a1.459 1.459 0 0 1-1.173 1.39 3.163 3.163 0 0 0-2.355 3.21c0 .75.323 1.409.323 1.926a.765.765 0 0 1-.748.859c-1.054 0-.534-1.285-1.177-1.285-.32 0-.426.32-.426.644 0 .856.426 1.605 1.603 1.605a1.608 1.608 0 0 0 1.602-1.179c.749.746 2.031 1.056 3.205 1.056a5.004 5.004 0 0 0 1.497-.215c-3.739 3.425-4.596 5.245-5.45 7.17a1.544 1.544 0 0 0-1.406-.753c-1.054 0-1.602.644-1.602 1.608 0 .212 0 .856.534.856.425 0 .214-.43.214-.75a.761.761 0 0 1 .854-.746c.854 0 1.054.746.854 1.925a9.306 9.306 0 0 0-.105 1.71c0 5.027 3.739 8.667 8.655 8.667.716-.02 1.43-.091 2.137-.215l1.497 2.25a2.503 2.503 0 0 0-1.817 2.35 2.425 2.425 0 0 0 1.512 2.288c.3.122.623.182.948.176.857 0 1.497-.43 1.497-.859a.39.39 0 0 0-.425-.425c-.324 0-.324.32-1.055.32a1.46 1.46 0 0 1-1.393-.92 1.465 1.465 0 0 1-.104-.58c0-.851.752-1.495 1.817-1.495 2.031 0 2.994 2.354 4.382 4.705l1.406 2.355c2.246 3.85 5.876 6.097 8.87 6.097a5.26 5.26 0 0 0 1.283-.106c1.282 1.285 2.565 3.636 3.1 4.706.533-1.056 1.813-3.421 3.099-4.706a5.26 5.26 0 0 0 1.282.106c2.99 0 6.625-2.246 8.87-6.097l1.388-2.355c1.388-2.35 2.351-4.706 4.383-4.706 1.054 0 1.816.645 1.816 1.496a1.465 1.465 0 0 1-1.497 1.5c-.748 0-.748-.32-1.054-.32a.39.39 0 0 0-.429.425c0 .43.643.86 1.497.86a2.42 2.42 0 0 0 2.46-2.465 2.512 2.512 0 0 0-1.813-2.33l1.494-2.249c.706.124 1.42.195 2.136.215 4.92 0 8.66-3.64 8.66-8.666a9.309 9.309 0 0 0-.106-1.71c-.215-1.18 0-1.926.854-1.926a.759.759 0 0 1 .854.746c0 .32-.215.75.214.75.534 0 .534-.644.534-.855 0-.965-.534-1.609-1.602-1.609l.028.007zm-2.808 18.4c-4.702 4.815-11.65 8.237-18.274 11.45-4.382 2.14-8.655 4.277-11.97 6.846-3.313-2.57-7.59-4.706-11.969-6.846-6.627-3.213-13.572-6.635-18.273-11.45-5.975-6.096-8.874-12.32-8.874-19.359 0-5.983 2.355-11.02 7.696-17.76.425-.54.854-1.074.854-1.5 0-.426-.429-1.285-.64-1.71l-3.742-8.135c-.854-1.816-1.708-3.52-1.708-5.347 0-1.5.963-2.57 2.242-3.64l5.345-4.81a.655.655 0 0 0 .106-.75l-1.708-3.52c-.215-.43-.215-.754.105-.965 5.236-3.52 9.619-4.6 15.923-6.314 5.974-1.605 11.33-2.996 14.644-5.136 3.314 2.14 8.655 3.52 14.64 5.136 6.304 1.714 10.581 2.995 15.923 6.314.32.211.32.535.105.965l-1.708 3.52a.662.662 0 0 0 .11.75l5.323 4.807c1.283 1.056 2.242 2.14 2.242 3.64 0 1.82-.854 3.52-1.708 5.346l-3.732 8.135c-.214.425-.643 1.284-.643 1.71 0 .426.429.961.854 1.5 5.774 6.42 7.696 11.767 7.696 17.76 0 7.04-2.885 13.267-8.87 19.36l.011.003zm5.011-36.806c-.96-1.18-1.493-1.715-1.493-2.14 0-.426.32-1.056.64-1.82l3.204-7.061c.963-2.14 1.817-3.96 1.817-6.202 0-1.608-.64-3.214-2.242-4.604l-4.597-3.96a.997.997 0 0 1-.214-1.284l1.712-3.851a.564.564 0 0 0-.215-.746c-5.236-3.52-11.22-5.674-16.886-7.28C53.31 5.03 45.723 2.89 41.985 0c-3.743 2.89-11.33 4.928-16.995 6.526-5.665 1.598-11.647 3.748-16.869 7.279a.556.556 0 0 0-.214.746l1.711 3.854a.994.994 0 0 1-.21 1.285L4.81 23.65c-1.603 1.408-2.246 2.995-2.246 4.604 0 2.242.854 4.061 1.817 6.201l3.205 7.061c.323.75.643 1.39.643 1.82 0 .43-.534.96-1.497 2.14C1.926 51.46 0 56.388 0 62.916c0 9.092 4.488 16.044 9.618 21.292 5.236 5.347 12.504 8.877 19.132 12.087 4.382 2.14 8.975 4.28 13.252 7.705 4.273-3.425 8.87-5.565 13.252-7.705 6.624-3.21 14-6.74 19.128-12.087C79.512 78.96 84 72.008 84 62.917c0-6.53-1.922-11.45-6.733-17.441" fill="#00003C"/><path d="M49.382 65.697a7.165 7.165 0 0 1-2.469 3.056 7.147 7.147 0 0 1-3.706 1.291c-4.986.412-5.06-5.515-5.06-5.515V50.066h.147a12.71 12.71 0 0 1 4.783.412c4.491 1.274 7.707 5.332 7.545 10.003a13.857 13.857 0 0 1-1.24 5.216zM38.136 30.19s1.054-2.794 5.015-2.495c3.96.3 6.108 3.551 6.22 6.74.112 3.19.96 10.254-7.172 13.087h-4.052l-.01-17.332zm14.707 26.265a12.835 12.835 0 0 0-2.024-4.29c-2.109-2.844-4.537-3.774-4.642-3.809a14.62 14.62 0 0 0 1.651-1.09 10.802 10.802 0 0 0 3.673-5.087 15.285 15.285 0 0 0 .38-8.958c-1.758-6.596-6.456-7.582-6.456-7.582S39.96 23.47 36.2 28.24c-.042-.066-2.084-3.213-5.697-1.562-3.127 1.724-1.328 4.452-.558 4.927 0 0 1.022.68 1.609 0 .429-.506 0-1.03-.242-1.383-.45-.704.295-1.489 1.342-1.471.91 0 2.727.704 2.727 3.168v33.438c0 .278-.285 2.063-1.785 2.027-1.5-.035-2.045-1.605-1.188-2.463a.863.863 0 0 0-.267-.353c-.155-.08-2.46-.144-2.19 2.303.271 2.446 3.199 3.628 6.02 2.09a7.765 7.765 0 0 0 6.881 3.925c4.941 0 8.04-4.147 8.04-4.147s3.965-4.818 1.944-12.238" fill="#00003C"/><path d="M32.11 62.628a19.38 19.38 0 0 0 12.545 3.847 16.267 16.267 0 0 0 8.54-2.837c7.302-5.103 4.037-11.724 3.823-12.32 0 0-2.017-4.6-6.98-6.31 0 0-3.728-1.253-9.646-1.686-5.918-.433-8.237-2.967-7.334-6.075.903-3.108 5.51-4.51 8.36-4.689a18.667 18.667 0 0 1 11.46 3.13c.59.472 1.138.994 1.638 1.562 0 0 .808 1.056 1.321.514.436-.475-.323-1.14-.323-1.14a6.19 6.19 0 0 1-1.406-3.52 17.978 17.978 0 0 1-.049-2.654 6.44 6.44 0 0 1 .197-1.056c.084-.3.154-.729-.278-.802-.351-.06-.523.351-.559.415a3.956 3.956 0 0 1-4.262 1.844c-4.783-1.038-7.732-.989-7.732-.989s-5.58-.387-9.316 3.629a7.592 7.592 0 0 0-1.996 6.572c.89 4.49 5.528 6.142 10.304 6.092a23.21 23.21 0 0 1 5.623.627c1.031.237 2.042.557 3.022.957a8.996 8.996 0 0 1 5.271 5.72c.682 2.383.432 5.582-3.904 8.17-8.006 4.786-17.642.351-21.68-9.082a.657.657 0 0 0-.878-.292c-.51.211-.228.936-.228.936s1.5 2.707 1.212 4.84a5.872 5.872 0 0 1-2.14 3.664c-.415.38-.924.834-.527 1.229.397.394.815.176 1.405-.352h.025a3.827 3.827 0 0 1 4.505.056" fill="#00003C"/><path d="M41.418 30.397v39.394a9.325 9.325 0 0 1-.906 4.125c-.678 1.376-1.803 2.753-3.599 2.753 0 0-2.108.18-2.79-1.151-.812-1.563.552-2.172.552-2.172s.949-.437.495-1.172c-.453-.736-1.462-.352-1.462-.352a4.218 4.218 0 0 0-2.337 2.323c-.773 1.81.5 4.83 3.954 5.16a7.693 7.693 0 0 0 7.06-3.228s2.523 2.992 6.188 3.478c0 0 .44.053.566-.134.127-.186.155-.493-.432-.901-.587-.408-3.982-2.365-3.968-5.783V29.091a7.148 7.148 0 0 1 3.255-6.064l.087-.053a19.353 19.353 0 0 1 4.309-1.718s.84-.148.938-.563c.098-.415-.144-.676-.703-.616a12.51 12.51 0 0 0-3.163.669c-1.507.535-3.328 1.612-6.251 1.615-2.256 0-5.272-.795-6.547-1.161a7.844 7.844 0 0 1-.935-.352c-.295-.13-.703-.268-.963-.095a.616.616 0 0 0-.163.783.61.61 0 0 0 .279.255c.875.553 1.117.5 1.94.926a8.51 8.51 0 0 1 2.54 1.982 8.618 8.618 0 0 1 2.053 5.705" fill="#00003C"/></svg>